<?xml version="1.0" encoding="UTF-8" standalone="no"?>
<!DOCTYPE svg PUBLIC "-//W3C//DTD SVG 1.1//EN"
 "http://www.w3.org/Graphics/SVG/1.1/DTD/svg11.dtd">
<!-- Generated by graphviz version 2.38.0 (20140413.2041)
 -->
<!-- Title: %3 Pages: 1 -->
<svg width="620pt" height="479pt"
 viewBox="0.00 0.00 620.47 479.00" xmlns="http://www.w3.org/2000/svg" xmlns:xlink="http://www.w3.org/1999/xlink">
<g id="graph0" class="graph" transform="scale(1 1) rotate(0) translate(4 475)">
<title>%3</title>
<polygon fill="#333333" stroke="none" points="-4,4 -4,-475 616.474,-475 616.474,4 -4,4"/>
<text text-anchor="middle" x="306.237" y="-9.2" font-family="Times,serif" font-size="16.00" fill="white">Network Map</text>
<!-- SW2 -->
<g id="node1" class="node"><title>SW2</title>
<polygon fill="#006699" stroke="#006699" points="525.474,-223 433.474,-223 433.474,-150 525.474,-150 525.474,-223"/>
<text text-anchor="middle" x="479.474" y="-182.8" font-family="Helvetica,sans-Serif" font-size="14.00" fill="white">SW2</text>
</g>
<!-- SW1 -->
<g id="node2" class="node"><title>SW1</title>
<polygon fill="#006699" stroke="#006699" points="340.474,-223 248.474,-223 248.474,-150 340.474,-150 340.474,-223"/>
<text text-anchor="middle" x="294.474" y="-182.8" font-family="Helvetica,sans-Serif" font-size="14.00" fill="white">SW1</text>
</g>
<!-- R2 -->
<g id="node3" class="node"><title>R2</title>
<polygon fill="#006699" stroke="#006699" points="394.974,-99 317.974,-99 317.974,-26 394.974,-26 394.974,-99"/>
<text text-anchor="middle" x="356.474" y="-58.8" font-family="Helvetica,sans-Serif" font-size="14.00" fill="white">R2</text>
</g>
<!-- SW1&#45;&#45;R2 -->
<g id="edge2" class="edge"><title>SW1&#45;&#45;R2</title>
<path fill="none" stroke="green" stroke-dasharray="5,2" d="M323.709,-149.721C327.649,-143.993 331.389,-137.977 334.474,-132 339.743,-121.788 344.067,-110.069 347.443,-99.2453"/>
<text text-anchor="middle" x="390.474" y="-120.8" font-family="Courier,monospace" font-size="14.00" fill="white"> &#160;&#160;&#160;&#160;&#160;&#160;&#160;&#160;&#160;&#160;&#160;</text>
<text text-anchor="middle" x="322.443" y="-103.045" font-family="Courier,monospace" font-size="14.00" fill="white">Eth0/0</text>
<text text-anchor="middle" x="298.709" y="-138.521" font-family="Courier,monospace" font-size="14.00" fill="white">Eth0/2</text>
</g>
<!-- R6 -->
<g id="node4" class="node"><title>R6</title>
<polygon fill="#006699" stroke="#006699" points="86.9737,-347 9.97367,-347 9.97367,-274 86.9737,-274 86.9737,-347"/>
<text text-anchor="middle" x="48.4737" y="-306.8" font-family="Helvetica,sans-Serif" font-size="14.00" fill="white">R6</text>
</g>
<!-- SW1&#45;&#45;R6 -->
<g id="edge4" class="edge"><title>SW1&#45;&#45;R6</title>
<path fill="none" stroke="green" stroke-dasharray="5,2" d="M248.35,-192.58C189.139,-200.034 90.9802,-215.842 65.4737,-241 56.75,-249.604 52.2477,-261.939 50,-273.776"/>
<text text-anchor="middle" x="115.474" y="-244.8" font-family="Courier,monospace" font-size="14.00" fill="white"> &#160;&#160;&#160;&#160;&#160;&#160;&#160;&#160;&#160;&#160;&#160;</text>
<text text-anchor="middle" x="25" y="-262.576" font-family="Courier,monospace" font-size="14.00" fill="white">Eth0/1</text>
<text text-anchor="middle" x="223.35" y="-181.38" font-family="Courier,monospace" font-size="14.00" fill="white">Eth0/5</text>
</g>
<!-- R3 -->
<g id="node5" class="node"><title>R3</title>
<polygon fill="#006699" stroke="#006699" points="270.974,-347 193.974,-347 193.974,-274 270.974,-274 270.974,-347"/>
<text text-anchor="middle" x="232.474" y="-306.8" font-family="Helvetica,sans-Serif" font-size="14.00" fill="white">R3</text>
</g>
<!-- SW1&#45;&#45;R3 -->
<g id="edge3" class="edge"><title>SW1&#45;&#45;R3</title>
<path fill="none" stroke="green" stroke-dasharray="5,2" d="M248.392,-194.929C221.329,-201.917 189.236,-215.347 172.474,-241 161.491,-257.808 176.172,-274.798 193.756,-287.652"/>
<text text-anchor="middle" x="222.474" y="-244.8" font-family="Courier,monospace" font-size="14.00" fill="white"> &#160;&#160;&#160;&#160;&#160;&#160;&#160;&#160;&#160;&#160;&#160;</text>
<text text-anchor="middle" x="168.756" y="-276.452" font-family="Courier,monospace" font-size="14.00" fill="white">Eth0/0</text>
<text text-anchor="middle" x="223.392" y="-198.729" font-family="Courier,monospace" font-size="14.00" fill="white">Eth0/3</text>
</g>
<!-- R1 -->
<g id="node8" class="node"><title>R1</title>
<polygon fill="#006699" stroke="#006699" points="516.974,-347 439.974,-347 439.974,-274 516.974,-274 516.974,-347"/>
<text text-anchor="middle" x="478.474" y="-306.8" font-family="Helvetica,sans-Serif" font-size="14.00" fill="white">R1</text>
</g>
<!-- SW1&#45;&#45;R1 -->
<g id="edge1" class="edge"><title>SW1&#45;&#45;R1</title>
<path fill="none" stroke="green" stroke-dasharray="5,2" d="M340.547,-214.637C354.176,-222.899 369.04,-232.141 382.474,-241 401.617,-253.625 422.385,-268.314 439.692,-280.845"/>
<text text-anchor="middle" x="453.474" y="-244.8" font-family="Courier,monospace" font-size="14.00" fill="white"> &#160;&#160;&#160;&#160;&#160;&#160;&#160;&#160;&#160;&#160;&#160;</text>
<text text-anchor="middle" x="414.692" y="-269.645" font-family="Courier,monospace" font-size="14.00" fill="white">Eth0/0</text>
<text text-anchor="middle" x="365.547" y="-218.437" font-family="Courier,monospace" font-size="14.00" fill="white">Eth0/1</text>
</g>
<!-- R2&#45;&#45;SW2 -->
<g id="edge7" class="edge"><title>R2&#45;&#45;SW2</title>
<path fill="none" stroke="green" stroke-dasharray="5,2" d="M395.302,-81.0727C411.968,-90.037 430.725,-102.196 444.474,-117 453.198,-126.394 460.301,-138.376 465.772,-149.683"/>
<text text-anchor="middle" x="505.474" y="-120.8" font-family="Courier,monospace" font-size="14.00" fill="white"> &#160;&#160;&#160;&#160;&#160;&#160;&#160;&#160;&#160;&#160;&#160;</text>
<text text-anchor="middle" x="436.772" y="-138.483" font-family="Courier,monospace" font-size="14.00" fill="white">Eth0/11</text>
<text text-anchor="middle" x="420.302" y="-69.8727" font-family="Courier,monospace" font-size="14.00" fill="white">Eth0/1</text>
</g>
<!-- R2&#45;&#45;SW1 -->
<g id="edge6" class="edge"><title>R2&#45;&#45;SW1</title>
<path fill="none" stroke="green" stroke-dasharray="5,2" d="M317.884,-68.4933C288.438,-74.5512 249.754,-87.8672 230.474,-117 220.144,-132.608 232.01,-148.016 248.215,-160.255"/>
<text text-anchor="middle" x="280.474" y="-120.8" font-family="Courier,monospace" font-size="14.00" fill="white"> &#160;&#160;&#160;&#160;&#160;&#160;&#160;&#160;&#160;&#160;&#160;</text>
<text text-anchor="middle" x="223.215" y="-149.055" font-family="Courier,monospace" font-size="14.00" fill="white">Eth0/2</text>
<text text-anchor="middle" x="292.884" y="-57.2933" font-family="Courier,monospace" font-size="14.00" fill="white">Eth0/0</text>
</g>
<!-- R3&#45;&#45;SW1 -->
<g id="edge8" class="edge"><title>R3&#45;&#45;SW1</title>
<path fill="none" stroke="green" stroke-dasharray="5,2" d="M261.709,-273.721C265.649,-267.993 269.389,-261.977 272.474,-256 277.743,-245.788 282.067,-234.069 285.443,-223.245"/>
<text text-anchor="middle" x="328.474" y="-244.8" font-family="Courier,monospace" font-size="14.00" fill="white"> &#160;&#160;&#160;&#160;&#160;&#160;&#160;&#160;&#160;&#160;&#160;</text>
<text text-anchor="middle" x="260.443" y="-227.045" font-family="Courier,monospace" font-size="14.00" fill="white">Eth0/3</text>
<text text-anchor="middle" x="236.709" y="-262.521" font-family="Courier,monospace" font-size="14.00" fill="white">Eth0/0</text>
</g>
<!-- R4 -->
<g id="node6" class="node"><title>R4</title>
<polygon fill="#006699" stroke="#006699" points="208.974,-471 131.974,-471 131.974,-398 208.974,-398 208.974,-471"/>
<text text-anchor="middle" x="170.474" y="-430.8" font-family="Helvetica,sans-Serif" font-size="14.00" fill="white">R4</text>
</g>
<!-- R3&#45;&#45;R4 -->
<g id="edge9" class="edge"><title>R3&#45;&#45;R4</title>
<path fill="none" stroke="green" stroke-dasharray="5,2" d="M193.692,-334.267C183.223,-342.511 173.214,-352.841 167.474,-365 162.748,-375.011 161.851,-386.789 162.626,-397.728"/>
<text text-anchor="middle" x="217.474" y="-368.8" font-family="Courier,monospace" font-size="14.00" fill="white"> &#160;&#160;&#160;&#160;&#160;&#160;&#160;&#160;&#160;&#160;&#160;</text>
<text text-anchor="middle" x="137.626" y="-386.528" font-family="Courier,monospace" font-size="14.00" fill="white">Eth0/0</text>
<text text-anchor="middle" x="168.692" y="-323.067" font-family="Courier,monospace" font-size="14.00" fill="white">Eth0/1</text>
</g>
<!-- R5 -->
<g id="node7" class="node"><title>R5</title>
<polygon fill="#006699" stroke="#006699" points="331.974,-471 254.974,-471 254.974,-398 331.974,-398 331.974,-471"/>
<text text-anchor="middle" x="293.474" y="-430.8" font-family="Helvetica,sans-Serif" font-size="14.00" fill="white">R5</text>
</g>
<!-- R3&#45;&#45;R5 -->
<g id="edge10" class="edge"><title>R3&#45;&#45;R5</title>
<path fill="none" stroke="green" stroke-dasharray="5,2" d="M260.754,-347.045C264.672,-352.854 268.4,-358.955 271.474,-365 276.681,-375.244 280.987,-386.971 284.367,-397.794"/>
<text text-anchor="middle" x="327.474" y="-368.8" font-family="Courier,monospace" font-size="14.00" fill="white"> &#160;&#160;&#160;&#160;&#160;&#160;&#160;&#160;&#160;&#160;&#160;</text>
<text text-anchor="middle" x="259.367" y="-386.594" font-family="Courier,monospace" font-size="14.00" fill="white">Eth0/0</text>
<text text-anchor="middle" x="235.754" y="-350.845" font-family="Courier,monospace" font-size="14.00" fill="white">Eth0/2</text>
</g>
<!-- R1&#45;&#45;SW1 -->
<g id="edge5" class="edge"><title>R1&#45;&#45;SW1</title>
<path fill="none" stroke="green" stroke-dasharray="5,2" d="M507.418,-273.983C513.123,-262.696 515.256,-250.651 507.474,-241 483.78,-211.617 461.138,-231.975 424.474,-223 396.522,-216.158 365.42,-207.695 340.647,-200.749"/>
<text text-anchor="middle" x="562.474" y="-244.8" font-family="Courier,monospace" font-size="14.00" fill="white"> &#160;&#160;&#160;&#160;&#160;&#160;&#160;&#160;&#160;&#160;&#160;</text>
<text text-anchor="middle" x="365.647" y="-189.549" font-family="Courier,monospace" font-size="14.00" fill="white">Eth0/1</text>
<text text-anchor="middle" x="482.418" y="-262.783" font-family="Courier,monospace" font-size="14.00" fill="white">Eth0/0</text>
</g>
</g>
</svg>
